<svg xmlns="http://www.w3.org/2000/svg" fill="none" viewBox="0 0 69 69"><path fill="#EEA018" d="M34.362 0C18.896 0 5.785 10.228 1.464 24.26H8.61s.01-.027.019-.041h23.647a3.362 3.362 0 0 0 3.365-3.358 3.36 3.36 0 0 0-3.365-3.357H12.45C17.511 10.946 25.443 6.71 34.362 6.71c15.263 0 27.682 12.388 27.682 27.612 0 15.225-12.419 27.613-27.682 27.613-8.956 0-16.915-4.273-21.97-10.877h19.884A3.362 3.362 0 0 0 35.64 47.7a3.36 3.36 0 0 0-3.365-3.358H7.466c-.167 0-.333.019-.49.042H1.463c4.322 14.027 17.433 24.255 32.9 24.255 18.974 0 34.408-15.4 34.408-34.322C68.77 15.395 53.332 0 34.362 0Z"/><path fill="#EEA018" d="M6.953 37.68h18.684a3.362 3.362 0 0 0 3.365-3.358 3.36 3.36 0 0 0-3.365-3.357H.166A35.058 35.058 0 0 0 0 34.318c0 1.128.06 2.252.166 3.352h6.787v.01Z"/></svg>