<?xml version="1.0" encoding="utf-8"?>
<!-- Generator: Adobe Illustrator 27.8.0, SVG Export Plug-In . SVG Version: 6.00 Build 0)  -->
<svg version="1.1" id="Layer_1" xmlns="http://www.w3.org/2000/svg" xmlns:xlink="http://www.w3.org/1999/xlink" x="0px" y="0px"
	 viewBox="0 0 261.2 314.7" style="enable-background:new 0 0 261.2 314.7;" xml:space="preserve">
<style type="text/css">
	.st0{fill:#8D2221;}
	.st1{clip-path:url(#SVGID_00000097491634791383880290000003933612265437469363_);}
	.st2{fill:url(#SVGID_00000011016092662588625420000013583833260407851195_);}
	.st3{clip-path:url(#SVGID_00000048486518947863397240000018314191289415968688_);}
	.st4{fill:url(#SVGID_00000128482601021617548790000004028639274646707895_);}
	.st5{clip-path:url(#SVGID_00000117648664567760060340000000050988605871882626_);}
	.st6{fill:url(#SVGID_00000080169140478872841680000006922044728303253174_);}
	.st7{clip-path:url(#SVGID_00000086670662213267864220000011268763466283256733_);}
	.st8{fill:url(#SVGID_00000070117960770930895750000014147980500464532910_);}
	.st9{clip-path:url(#SVGID_00000096057726468936359200000016274492449282634428_);}
	.st10{fill:url(#SVGID_00000119824268053276601890000004669232330098268328_);}
	.st11{clip-path:url(#SVGID_00000133528460229327599880000016069127430703675795_);}
	.st12{fill:url(#SVGID_00000063599323660470449210000017456113386555669687_);}
	.st13{clip-path:url(#SVGID_00000000912629491854100900000014594610293557570730_);}
	.st14{fill:url(#SVGID_00000138570122891628683660000011370498091747389361_);}
	.st15{clip-path:url(#SVGID_00000171684988251659729260000003385712282358432173_);}
	.st16{fill:url(#SVGID_00000151541924658739013580000008659663250272803463_);}
	.st17{clip-path:url(#SVGID_00000056397474300100440060000011012319608335582596_);}
	.st18{fill:url(#SVGID_00000036931557228216294410000007887169573321329330_);}
	.st19{clip-path:url(#SVGID_00000075883447093876981590000005822203385093970617_);}
	.st20{fill:url(#SVGID_00000031166074823519608490000015541165902280934329_);}
	.st21{clip-path:url(#SVGID_00000070834223574629792940000001706410017000074141_);}
	.st22{fill:url(#SVGID_00000123411814468951493990000013358213087587351712_);}
	.st23{fill:#DB9024;}
</style>
<g>
	<path class="st0" d="M159.3,100.2c-47.7,2-71.7,21.2-86.5,65.7l-20.7-44.7c35.6,0.2,59.6-18.8,73.5-61.8L159.3,100.2L159.3,100.2z"
		/>
	<g>
		<defs>
			<path id="SVGID_1_" d="M172.8,12.3l-0.2,0c-9.9,4.2-19.6,10.4-27.7,18.1c-21.2,20.1-27.7,46.1-14.2,60.2
				c3.4,3.5,7.8,6.1,12.9,7.7c32,23,30,54.3-9.9,96.8l94.1-7.9c-31.3-21.7-43.8-42.7-39.2-66.3c0.6-4.5,5.9-45.2,11.7-64
				c0,0,15.3-45.1-20.4-45.1C177.6,11.8,175.3,11.9,172.8,12.3"/>
		</defs>
		<clipPath id="SVGID_00000094609920561477856370000004069073709971601327_">
			<use xlink:href="#SVGID_1_"  style="overflow:visible;"/>
		</clipPath>
		<g style="clip-path:url(#SVGID_00000094609920561477856370000004069073709971601327_);">
			
				<linearGradient id="SVGID_00000145781034535025106760000013357642888961149323_" gradientUnits="userSpaceOnUse" x1="50.1432" y1="-278.7464" x2="54.7452" y2="-278.7464" gradientTransform="matrix(29.6688 -29.6688 29.6688 29.6688 6889.4624 9926.4551)">
				<stop  offset="0" style="stop-color:#DB9024"/>
				<stop  offset="0.487" style="stop-color:#DA8D23"/>
				<stop  offset="0.767" style="stop-color:#D78522"/>
				<stop  offset="0.995" style="stop-color:#D37820"/>
				<stop  offset="1" style="stop-color:#D37820"/>
			</linearGradient>
			<polygon style="fill:url(#SVGID_00000145781034535025106760000013357642888961149323_);" points="25.4,103.4 172.4,-43.5 
				319.3,103.4 172.4,250.3 			"/>
		</g>
	</g>
	<g>
		<defs>
			<path id="SVGID_00000149368829526944007180000009784897798170009521_" d="M77,195c1,0.3,1.9,0.7,2.9,1.1
				C78.5,195.6,77.5,195.2,77,195 M64.9,162.2l-24.3,40.2c16.5-6.9,30.5-8.8,41.9-5c-0.9-0.4-1.8-0.9-2.7-1.2
				c1.2,0.5,2.7,1.1,4.4,1.9c1.3,0.5,2.6,1.1,3.8,1.8c15.3,7.4,42.8,23.7,64.8,53.8c0,0,48.1,62.8,92.4,24.8
				c9.2-13.7,13.2-30.8,9.7-49c-7.6-39.2-46.8-61.5-83.7-54.2c-3.9,0.8-7.6,1.9-11.2,3.2l0,0c-49.3,18.4-74.2,10-82.9-24.2
				C72.8,158,69.3,160.2,64.9,162.2"/>
		</defs>
		<clipPath id="SVGID_00000052100287154341947760000005213462621966236093_">
			<use xlink:href="#SVGID_00000149368829526944007180000009784897798170009521_"  style="overflow:visible;"/>
		</clipPath>
		<g style="clip-path:url(#SVGID_00000052100287154341947760000005213462621966236093_);">
			
				<linearGradient id="SVGID_00000143611824353823031140000014979393338248120487_" gradientUnits="userSpaceOnUse" x1="46.0145" y1="-275.2457" x2="50.6181" y2="-275.2457" gradientTransform="matrix(22.1126 -22.1126 22.1126 22.1126 5180.354 7377.2183)">
				<stop  offset="0" style="stop-color:#C12022"/>
				<stop  offset="0.401" style="stop-color:#C12022"/>
				<stop  offset="1" style="stop-color:#A62321"/>
			</linearGradient>
			<polygon style="fill:url(#SVGID_00000143611824353823031140000014979393338248120487_);" points="-40.4,235.2 149.5,45.2 
				339.5,235.2 149.5,425.2 			"/>
		</g>
	</g>
	<g>
		<defs>
			<path id="SVGID_00000164513404666495195590000009794420760126568577_" d="M79.9,196.2c-0.9-0.4-1.9-0.8-2.9-1.1
				C77.5,195.2,78.5,195.6,79.9,196.2"/>
		</defs>
		<clipPath id="SVGID_00000009549119729023108050000004191865530387250579_">
			<use xlink:href="#SVGID_00000164513404666495195590000009794420760126568577_"  style="overflow:visible;"/>
		</clipPath>
		<g style="clip-path:url(#SVGID_00000009549119729023108050000004191865530387250579_);">
			
				<linearGradient id="SVGID_00000068667179055249075380000008411773748507381176_" gradientUnits="userSpaceOnUse" x1="46.0326" y1="-277.2637" x2="50.6446" y2="-277.2637" gradientTransform="matrix(22.131 -22.131 22.131 22.131 5173.5161 7372.7705)">
				<stop  offset="0" style="stop-color:#C12022"/>
				<stop  offset="0.401" style="stop-color:#C12022"/>
				<stop  offset="1" style="stop-color:#A62321"/>
			</linearGradient>
			<polygon style="fill:url(#SVGID_00000068667179055249075380000008411773748507381176_);" points="76.4,195.6 78.4,193.6 
				80.4,195.6 78.4,197.6 			"/>
		</g>
	</g>
	<g>
		<defs>
			<path id="SVGID_00000080929259563441288750000008152506855665589916_" d="M79.9,196.2c-0.9-0.4-1.9-0.8-2.9-1.1
				C77.5,195.2,78.5,195.6,79.9,196.2"/>
		</defs>
		<clipPath id="SVGID_00000074441478471653876920000007265131545007673269_">
			<use xlink:href="#SVGID_00000080929259563441288750000008152506855665589916_"  style="overflow:visible;"/>
		</clipPath>
		<g style="clip-path:url(#SVGID_00000074441478471653876920000007265131545007673269_);">
			
				<linearGradient id="SVGID_00000167363223800157839390000015062960876389468045_" gradientUnits="userSpaceOnUse" x1="61.5438" y1="-274.7468" x2="66.1665" y2="-274.7468" gradientTransform="matrix(27.6026 27.6026 -27.6026 27.6026 -9205.458 6079.1704)">
				<stop  offset="0" style="stop-color:#AF1B22"/>
				<stop  offset="0.401" style="stop-color:#AF1B22"/>
				<stop  offset="1" style="stop-color:#721E1C"/>
			</linearGradient>
			<polygon style="fill:url(#SVGID_00000167363223800157839390000015062960876389468045_);" points="78.4,193.6 80.4,195.6 
				78.4,197.6 76.4,195.6 			"/>
		</g>
	</g>
	<g>
		<defs>
			<path id="SVGID_00000169533161638338247950000000391046957900229253_" d="M82.6,197.4c0.6,0.2,1.1,0.4,1.7,0.6
				c-1.7-0.8-3.2-1.4-4.4-1.9C80.8,196.5,81.7,196.9,82.6,197.4"/>
		</defs>
		<clipPath id="SVGID_00000129190904621838844600000000242075410046265739_">
			<use xlink:href="#SVGID_00000169533161638338247950000000391046957900229253_"  style="overflow:visible;"/>
		</clipPath>
		<g style="clip-path:url(#SVGID_00000129190904621838844600000000242075410046265739_);">
			
				<linearGradient id="SVGID_00000040561628378472808520000012700261616616266635_" gradientUnits="userSpaceOnUse" x1="46.0183" y1="-277.17" x2="50.6328" y2="-277.17" gradientTransform="matrix(22.0964 -22.0964 22.0964 22.0964 5166.2388 7361.8228)">
				<stop  offset="0" style="stop-color:#C12022"/>
				<stop  offset="0.401" style="stop-color:#C12022"/>
				<stop  offset="1" style="stop-color:#A62321"/>
			</linearGradient>
			<polygon style="fill:url(#SVGID_00000040561628378472808520000012700261616616266635_);" points="78.9,197.1 82.1,194 
				85.2,197.1 82.1,200.2 			"/>
		</g>
	</g>
	<g>
		<defs>
			<path id="SVGID_00000065032015017399974240000012961693464106737047_" d="M82.6,197.4c0.6,0.2,1.1,0.4,1.7,0.6
				c-1.7-0.8-3.2-1.4-4.4-1.9C80.8,196.5,81.7,196.9,82.6,197.4"/>
		</defs>
		<clipPath id="SVGID_00000180367154987451454240000016902010766298322838_">
			<use xlink:href="#SVGID_00000065032015017399974240000012961693464106737047_"  style="overflow:visible;"/>
		</clipPath>
		<g style="clip-path:url(#SVGID_00000180367154987451454240000016902010766298322838_);">
			
				<linearGradient id="SVGID_00000019640946682226822840000008122533294193421992_" gradientUnits="userSpaceOnUse" x1="61.561" y1="-274.7681" x2="66.2262" y2="-274.7681" gradientTransform="matrix(27.5567 27.5567 -27.5567 27.5567 -9189.9189 6068.4839)">
				<stop  offset="0" style="stop-color:#AF1B22"/>
				<stop  offset="0.401" style="stop-color:#AF1B22"/>
				<stop  offset="1" style="stop-color:#721E1C"/>
			</linearGradient>
			<polygon style="fill:url(#SVGID_00000019640946682226822840000008122533294193421992_);" points="82.1,194 85.2,197.1 
				82.1,200.2 78.9,197.1 			"/>
		</g>
	</g>
	<g>
		<defs>
			<path id="SVGID_00000168096634214158130650000011655428318541044112_" d="M116.8,253.1L116.8,253.1c5.9,29.7,32.4,54.4,67.2,55.5
				c15.9,0.5,30.5-3.9,42.3-11.6c7.5-5.2,12.9-10.9,16-14.7c1-1.3,2-2.6,2.9-4c-44.2,38-92.4-24.8-92.4-24.8
				c-22-30-49.6-46.4-64.8-53.8C101.7,207.2,111.3,224.4,116.8,253.1"/>
		</defs>
		<clipPath id="SVGID_00000090263771697226331330000006059254095575401641_">
			<use xlink:href="#SVGID_00000168096634214158130650000011655428318541044112_"  style="overflow:visible;"/>
		</clipPath>
		<g style="clip-path:url(#SVGID_00000090263771697226331330000006059254095575401641_);">
			
				<linearGradient id="SVGID_00000036969841574913051940000006608305828407817130_" gradientUnits="userSpaceOnUse" x1="54.3306" y1="-271.2013" x2="58.9332" y2="-271.2013" gradientTransform="matrix(34.153 0 0 34.153 -1767.4924 9520.377)">
				<stop  offset="0" style="stop-color:#AF1B22"/>
				<stop  offset="0.401" style="stop-color:#AF1B22"/>
				<stop  offset="1" style="stop-color:#721E1C"/>
			</linearGradient>
			
				<rect x="88.1" y="199.8" style="fill:url(#SVGID_00000036969841574913051940000006608305828407817130_);" width="157.2" height="116.5"/>
		</g>
	</g>
	<g>
		<defs>
			<path id="SVGID_00000078761044574158467770000007983534160721705359_" d="M77,195c-0.2-0.1-0.3-0.1-0.4-0.2
				C76.5,194.9,76.7,195,77,195"/>
		</defs>
		<clipPath id="SVGID_00000154418535517792935400000018105470490138600122_">
			<use xlink:href="#SVGID_00000078761044574158467770000007983534160721705359_"  style="overflow:visible;"/>
		</clipPath>
		<g style="clip-path:url(#SVGID_00000154418535517792935400000018105470490138600122_);">
			
				<linearGradient id="SVGID_00000117636877238590375670000009777400997689531827_" gradientUnits="userSpaceOnUse" x1="45.9574" y1="-277.2903" x2="50.7684" y2="-277.2903" gradientTransform="matrix(22.0561 -22.0561 22.0561 22.0561 5156.3911 7347.2124)">
				<stop  offset="0" style="stop-color:#C12022"/>
				<stop  offset="0.401" style="stop-color:#C12022"/>
				<stop  offset="1" style="stop-color:#A62321"/>
			</linearGradient>
			<polygon style="fill:url(#SVGID_00000117636877238590375670000009777400997689531827_);" points="76.5,195 76.8,194.7 77.1,195 
				76.8,195.3 			"/>
		</g>
	</g>
	<g>
		<defs>
			<path id="SVGID_00000062905523533514202650000009673034897377003192_" d="M77,195c-0.2-0.1-0.3-0.1-0.4-0.2
				C76.5,194.9,76.7,195,77,195"/>
		</defs>
		<clipPath id="SVGID_00000161599222505837871560000006438478165472137612_">
			<use xlink:href="#SVGID_00000062905523533514202650000009673034897377003192_"  style="overflow:visible;"/>
		</clipPath>
		<g style="clip-path:url(#SVGID_00000161599222505837871560000006438478165472137612_);">
			
				<linearGradient id="SVGID_00000029757376620529047970000009658270877274245003_" gradientUnits="userSpaceOnUse" x1="61.5545" y1="-274.7743" x2="66.1548" y2="-274.7743" gradientTransform="matrix(27.6839 27.6839 -27.6839 27.6839 -9234.3457 6097.521)">
				<stop  offset="0" style="stop-color:#AF1B22"/>
				<stop  offset="0.401" style="stop-color:#AF1B22"/>
				<stop  offset="1" style="stop-color:#721E1C"/>
			</linearGradient>
			<polygon style="fill:url(#SVGID_00000029757376620529047970000009658270877274245003_);" points="76.8,194.7 77.1,195 
				76.8,195.3 76.5,195 			"/>
		</g>
	</g>
	<g>
		<defs>
			<path id="SVGID_00000047779682141984190790000010391388767389035927_" d="M174.5,11.5c-0.2,0.1-0.3,0.1-0.4,0.2
				C174.2,11.6,174.4,11.5,174.5,11.5 M175.2,11.2c-0.2,0.1-0.3,0.1-0.5,0.2C174.9,11.4,175,11.3,175.2,11.2 M176,11
				c-0.2,0.1-0.4,0.1-0.5,0.2C175.6,11.1,175.8,11,176,11 M176.8,10.7c-0.2,0.1-0.4,0.1-0.6,0.2C176.4,10.8,176.6,10.7,176.8,10.7
				 M177.7,10.4c-0.2,0.1-0.4,0.1-0.6,0.2C177.3,10.5,177.5,10.4,177.7,10.4 M178.7,10c-0.2,0.1-0.5,0.1-0.7,0.2
				C178.3,10.2,178.5,10.1,178.7,10 M179.8,9.7c-0.3,0.1-0.5,0.1-0.7,0.2C179.3,9.8,179.6,9.8,179.8,9.7 M181,9.4
				c-0.3,0.1-0.5,0.2-0.8,0.2C180.4,9.5,180.7,9.4,181,9.4 M182.2,9c-0.3,0.1-0.6,0.2-0.9,0.2C181.6,9.2,181.9,9.1,182.2,9
				 M183.5,8.7c-0.3,0.1-0.6,0.2-0.9,0.2C182.8,8.8,183.1,8.7,183.5,8.7 M184.9,8.3c-0.4,0.1-0.7,0.2-1.1,0.3
				C184.1,8.5,184.5,8.4,184.9,8.3 M186.4,7.9c-0.4,0.1-0.9,0.2-1.3,0.3C185.5,8.1,186,8,186.4,7.9 M189.4,7.3c-1,0.2-2,0.4-2.9,0.6
				C187.4,7.7,188.4,7.5,189.4,7.3 M190.9,7.1c-0.5,0.1-0.9,0.2-1.4,0.2C190,7.2,190.5,7.1,190.9,7.1 M192.5,6.8
				c-0.4,0.1-0.8,0.1-1.2,0.2C191.7,6.9,192.1,6.9,192.5,6.8 M194,6.6c-0.4,0-0.7,0.1-1.1,0.1C193.3,6.7,193.7,6.7,194,6.6
				 M195.6,6.4c-0.3,0-0.7,0.1-1,0.1C194.9,6.5,195.3,6.5,195.6,6.4 M197.2,6.3c-0.3,0-0.7,0-1,0.1C196.6,6.4,196.9,6.3,197.2,6.3
				 M198.8,6.2c-0.3,0-0.6,0-1,0.1C198.2,6.2,198.5,6.2,198.8,6.2 M200.5,6.1c-0.3,0-0.6,0-1,0C199.8,6.2,200.2,6.1,200.5,6.1
				 M201.5,6.1c-0.1,0-0.2,0-0.3,0C201.3,6.1,201.4,6.1,201.5,6.1 M174,11.7L174,11.7c-0.1,0.1-0.2,0.1-0.3,0.1
				c-0.4,0.2-0.8,0.3-0.9,0.4c-0.1,0-0.1,0-0.1,0c0,0,0,0,0,0c0,0,0,0,0,0h0c0,0,0,0,0,0l0.2,0c44.6-6.1,27.4,44.6,27.4,44.6
				c-5.8,18.8-11.1,59.6-11.7,64c0,0.3-0.1,0.4-0.1,0.4c0-0.3,0.1-0.6,0.2-0.9c0.4-1.8,0.8-3.5,1.4-5.4
				c4.5-13.9,16.5-30.1,23.5-38.8c3.2-3.9,5.3-6.4,5.3-6.4c3.9-4.5,7.1-9,9.6-13.6c0.2-0.3,0.3-0.6,0.5-1c0.2-0.4,0.4-0.8,0.6-1.3
				c0.1-0.3,0.3-0.6,0.4-0.9c7.6-16.3,5.7-32-6.5-40.7c-3.4-2.5-7.1-4.1-11-5.1c0,0-0.1,0-0.1,0c-0.4-0.1-0.9-0.2-1.3-0.3
				c-3.2-0.7-6.6-1.1-10.2-1.1C192.4,6,183.1,8,174,11.7"/>
		</defs>
		<clipPath id="SVGID_00000096053781600567377720000005337727851936638623_">
			<use xlink:href="#SVGID_00000047779682141984190790000010391388767389035927_"  style="overflow:visible;"/>
		</clipPath>
		<g style="clip-path:url(#SVGID_00000096053781600567377720000005337727851936638623_);">
			
				<linearGradient id="SVGID_00000018221637072739966510000011877694553433603495_" gradientUnits="userSpaceOnUse" x1="55.0396" y1="-264.4594" x2="59.6441" y2="-264.4594" gradientTransform="matrix(13.473 0 0 13.473 -569.0025 3626.7029)">
				<stop  offset="0" style="stop-color:#E4A743"/>
				<stop  offset="0.436" style="stop-color:#E4A740"/>
				<stop  offset="0.686" style="stop-color:#E4A738"/>
				<stop  offset="0.889" style="stop-color:#E3A62C"/>
				<stop  offset="1" style="stop-color:#E3A523"/>
			</linearGradient>
			
				<rect x="172.5" y="6" style="fill:url(#SVGID_00000018221637072739966510000011877694553433603495_);" width="65.1" height="115.3"/>
		</g>
	</g>
	<g>
		<defs>
			<path id="SVGID_00000176034880181970127610000017245857944017972387_" d="M11.6,151.3c-10.4,20.2-8.4,42.6,5.7,50.7
				c15.7,9,39.8-3.1,52.1-27.7c3.1-6.2,7-15.4,7.8-21.4c2.3-16.9-6.3-27.7-19.3-30.9c-1.9-0.5-3.9-0.7-5.9-0.7
				C37.3,121.3,20.6,133.6,11.6,151.3"/>
		</defs>
		<clipPath id="SVGID_00000000200153337130099010000017300937558419413640_">
			<use xlink:href="#SVGID_00000176034880181970127610000017245857944017972387_"  style="overflow:visible;"/>
		</clipPath>
		<g style="clip-path:url(#SVGID_00000000200153337130099010000017300937558419413640_);">
			
				<linearGradient id="SVGID_00000044892689406125217440000004171219519894440875_" gradientUnits="userSpaceOnUse" x1="47.0225" y1="-262.054" x2="51.6244" y2="-262.054" gradientTransform="matrix(15.754 0 0 15.754 -735.8753 4294.5122)">
				<stop  offset="0" style="stop-color:#721E1C"/>
				<stop  offset="0.247" style="stop-color:#7F1F1E"/>
				<stop  offset="0.605" style="stop-color:#892120"/>
				<stop  offset="1" style="stop-color:#8D2221"/>
			</linearGradient>
			
				<rect x="1.2" y="121.3" style="fill:url(#SVGID_00000044892689406125217440000004171219519894440875_);" width="78.2" height="89.6"/>
		</g>
	</g>
	<path class="st23" d="M141.6,97.6c0,0,2.1,0.6,4.4,2.5v-2.2c0,0-2.9-1-3.1-1.1C142.7,96.8,141.6,97.6,141.6,97.6"/>
	<path class="st0" d="M77.4,153.8c0,0-0.7,1.5-1.2,3.6l0.6-3.3L77.4,153.8L77.4,153.8z"/>
</g>
</svg>
