<svg viewBox="0 0 300 256.3" xmlns="http://www.w3.org/2000/svg"><path class="st0" d="M164.745 39.662c-71.185 0-118.981 32.541-118.981 64.068 0 35.593 45.762 64.068 101.695 64.068h34.575v13.219l38.643-28.476c36.612-25.422 52.882-53.898 43.73-82.371-2.034-5.085-4.068-10.17-7.118-15.255-20.34-9.151-48.814-15.253-92.544-15.253m107.798 27.457c6.1 18.306 7.119 54.915-47.798 92.543l-52.879 38.643v-21.356h-25.425c-61.016 0-110.847-32.542-110.847-73.219 0-20.339 15.253-39.662 41.695-53.898 25.422-12.204 56.948-19.323 87.456-19.323 31.526 0 57.966 3.051 78.306 9.153-21.355-18.305-55.932-30.509-93.558-30.509-91.527 0-140.34 49.83-140.34 96.611 0 53.898 58.983 93.559 138.306 93.559h4.068v39.66c18.305-13.219 69.15-47.796 92.541-65.085 31.526-22.371 46.779-45.762 46.779-71.187 0-13.218-4.068-27.456-19.32-39.66 0 2.034 1.016 3.051 1.016 4.068M143.391 208.475C62.034 206.441 0 163.73 0 105.764c0-30.509 16.271-57.966 46.779-77.289C74.237 10.17 111.864 0 149.493 0c49.83 0 92.541 18.305 112.88 47.798C286.779 60 300 78.305 300 103.73c0 28.473-16.27 53.898-49.83 78.304-28.474 20.339-98.643 69.153-99.661 70.17l-7.118 4.067v-47.796z" fill="#0B872F"/></svg>
